<svg version="1.0" xmlns="http://www.w3.org/2000/svg"
 width="1000.000000pt" height="370.000000pt" viewBox="0 0 1000.000000 370.000000"
 preserveAspectRatio="xMidYMid meet"
>

<g  
    transform="translate(0.000000,370.000000) scale(0.100000,-0.100000)"
fill="#000000" stroke="none">
<path d="M5618 3464 c-26 -8 -65 -32 -89 -54 l-43 -40 -177 0 -176 0 -7 -52
c-3 -29 -6 -119 -6 -200 0 -142 -1 -148 -20 -148 -28 0 -70 -23 -99 -54 -38
-40 -82 -251 -82 -391 0 -101 -12 -161 -26 -127 -7 17 -60 15 -67 -3 -7 -19
-46 -19 -72 0 -25 19 -60 19 -68 0 -8 -21 -86 -21 -86 0 0 10 -10 15 -30 15
-16 0 -30 -4 -30 -10 0 -5 -4 -10 -8 -10 -4 0 -9 75 -11 168 -1 92 -6 209 -12
260 -5 52 -6 117 -3 146 8 66 -19 132 -67 167 l-34 24 -350 3 c-353 4 -1031
-13 -1159 -28 -62 -8 -73 -12 -109 -48 l-40 -40 -24 -164 c-33 -222 -29 -279
26 -382 75 -143 130 -193 226 -210 79 -14 75 -9 75 -101 0 -46 -4 -95 -9 -108
l-9 -24 -289 -7 c-158 -3 -421 -11 -583 -16 -585 -19 -1237 -31 -1261 -22 -13
5 -127 6 -253 3 l-230 -6 -19 -32 c-38 -66 -31 -210 13 -266 l19 -24 236 4
c131 2 245 8 254 13 10 5 447 9 1059 9 l1042 1 0 -31 c0 -24 11 -42 44 -76 43
-43 45 -44 106 -41 61 2 63 2 101 -39 37 -40 39 -46 39 -105 -1 -36 -7 -74
-15 -88 -22 -38 -19 -47 31 -81 26 -18 52 -46 60 -65 20 -47 17 -118 -6 -161
-21 -39 -13 -73 16 -73 8 0 35 -19 59 -41 l45 -42 0 -70 c0 -54 -5 -77 -22
-105 l-22 -35 24 -16 c13 -9 43 -35 67 -57 43 -41 43 -42 43 -110 0 -47 -5
-77 -16 -92 -8 -12 -14 -30 -12 -40 3 -15 21 -17 193 -17 105 0 197 -2 205 -5
10 -4 29 26 66 100 49 97 53 110 53 179 1 65 -3 84 -33 145 -132 275 -160 339
-178 406 -25 98 -31 132 -32 207 -2 106 -53 98 597 99 510 1 565 2 595 18 32
16 35 16 65 -1 52 -31 69 -72 72 -171 2 -97 14 -129 67 -178 63 -59 54 -58
410 -55 307 3 329 2 371 -17 25 -11 59 -35 77 -53 34 -37 35 -38 14 -210 -5
-44 -4 -46 40 -82 56 -47 71 -87 63 -180 l-6 -70 44 -39 c60 -53 82 -112 68
-182 -12 -56 -4 -90 24 -104 23 -12 802 9 823 22 32 19 60 50 60 67 0 9 -41
102 -91 205 -50 104 -105 218 -121 254 -17 36 -60 126 -96 200 -242 506 -232
483 -232 557 0 48 5 76 17 93 24 35 53 60 72 61 9 1 23 2 31 3 8 2 25 3 36 4
30 3 124 82 124 104 0 16 9 18 64 18 60 0 64 -2 75 -27 6 -16 14 -53 19 -83
l7 -55 141 3 c140 4 141 4 200 -26 78 -39 129 -96 149 -165 24 -84 34 -89 182
-96 l128 -6 5 -45 c7 -55 15 -70 42 -70 18 0 19 5 16 52 -2 44 0 53 15 56 10
2 17 -3 17 -12 0 -9 5 -16 11 -16 6 0 9 -14 7 -32 -3 -29 0 -33 22 -33 20 0
24 5 25 30 0 28 2 30 45 33 42 3 50 -1 105 -48 33 -28 78 -66 100 -84 22 -19
97 -82 167 -140 137 -114 157 -122 219 -90 l30 15 -7 107 c-7 111 -16 152 -34
152 -14 0 -13 33 2 48 17 17 43 15 133 -14 87 -27 108 -40 101 -60 -3 -7 4
-24 15 -38 19 -24 19 -27 4 -50 -15 -23 -16 -46 -6 -237 13 -231 19 -256 74
-289 92 -56 207 19 207 136 0 27 6 47 18 57 27 24 31 22 38 -22 7 -42 16 -59
92 -161 l49 -65 64 3 c99 5 99 4 132 277 31 254 38 503 22 860 -4 105 -9 217
-10 250 -11 256 -34 376 -76 407 -37 28 -136 16 -184 -22 l-34 -27 -668 -7
c-367 -4 -853 -9 -1079 -12 -366 -5 -412 -4 -423 10 -21 25 -39 19 -67 -24
l-27 -40 -78 0 c-56 0 -79 4 -79 13 0 6 -5 68 -10 136 -10 121 -11 126 -42
158 -36 37 -63 41 -128 18 -67 -24 -80 -21 -80 19 0 43 -11 50 -53 37 -24 -8
-37 -21 -47 -47 l-14 -35 -66 4 c-47 4 -72 1 -91 -10 -42 -25 -56 -12 -63 54
-3 32 -9 94 -14 138 -9 74 -8 82 11 102 18 20 31 23 120 25 l100 3 14 40 c21
58 31 354 16 471 -19 150 21 136 -367 132 l-334 -3 -28 29 c-62 62 -155 85
-236 60z m-95 -171 c9 0 17 5 18 11 0 6 7 -10 15 -35 22 -74 83 -119 160 -119
17 0 23 -8 27 -37 10 -57 -26 -68 -124 -36 -56 18 -108 62 -135 115 -26 50
-19 132 9 110 7 -5 20 -9 30 -9z m-178 -189 l0 -39 -75 1 c-128 3 -130 3 -130
44 0 23 3 30 9 21 5 -8 11 -9 15 -3 3 5 38 10 78 11 39 1 74 4 77 6 13 14 26
-6 26 -41z m1069 28 c7 -12 -5 -52 -15 -52 -5 0 -9 14 -9 30 0 28 13 40 24 22z
m-857 -138 c-3 -3 -12 -4 -19 -1 -8 3 -5 6 6 6 11 1 17 -2 13 -5z m373 -204
l-235 -5 165 -5 c129 -4 94 -6 -161 -8 -280 -2 -328 0 -339 13 -11 13 34 15
396 13 365 -2 384 -3 174 -8z m-2067 -32 c9 -7 17 -31 19 -53 l3 -40 125 -5
125 -6 -117 -2 c-127 -2 -148 2 -148 27 0 14 -29 16 -310 16 -261 0 -312 2
-320 15 -7 12 -13 12 -33 1 -14 -7 -29 -11 -34 -8 -5 3 -34 -1 -65 -8 -60 -14
-68 -12 -68 16 0 30 33 39 132 38 125 -2 632 12 637 17 9 8 38 4 54 -8z m2267
-30 c0 -13 3 -33 6 -46 5 -16 3 -22 -6 -20 -20 5 -23 -20 -3 -25 15 -4 14 -5
-3 -6 -24 -1 -34 21 -34 82 0 30 4 37 20 37 14 0 20 -7 20 -22z m-820 -119 c0
-5 6 -9 14 -9 7 0 19 -7 26 -15 9 -11 32 -15 80 -15 60 0 71 3 87 24 18 23 20
23 217 22 108 -1 200 2 202 6 6 10 56 10 69 0 6 -4 16 -19 22 -34 7 -16 23
-30 39 -34 66 -17 -21 -24 -303 -24 -195 0 -303 -4 -303 -10 0 -5 -7 -10 -15
-10 -8 0 -15 4 -15 10 0 6 -63 11 -156 12 -136 3 -158 5 -168 20 -8 14 -6 22
12 40 17 18 38 24 90 28 73 6 102 2 102 -11z m-1717 -6 c-7 -2 -19 -2 -25 0
-7 3 -2 5 12 5 14 0 19 -2 13 -5z m2645 -43 c-9 -14 -23 -20 -48 -19 l-35 1
35 10 c19 5 39 14 45 19 15 15 16 10 3 -11z m-2650 3 c-14 -4 -16 -8 -8 -24 8
-14 7 -25 -5 -41 -17 -25 -21 -78 -5 -78 6 0 10 -4 10 -10 0 -5 -9 -10 -20
-10 -11 0 -20 -4 -20 -10 0 -5 -4 -10 -9 -10 -4 0 -7 12 -5 28 2 15 5 57 6 95
l2 67 36 -1 c19 -1 27 -3 18 -6z m2243 -90 c15 -40 5 -54 -33 -47 -18 4 -36
10 -41 14 -10 9 -67 0 -67 -10 0 -12 -142 -9 -157 3 -9 6 -18 5 -28 -3 -20
-17 -35 -4 -35 31 0 28 2 29 45 29 44 0 49 -4 46 -40 -1 -8 6 -3 14 13 20 34
57 37 73 5 l11 -23 0 23 c1 19 6 22 39 22 21 0 43 -5 49 -11 8 -8 17 -7 34 5
32 22 38 20 50 -11z m-2249 -25 c-9 -9 -12 -7 -12 12 0 19 3 21 12 12 9 -9 9
-15 0 -24z m1082 -133 c-3 -8 -14 -15 -23 -15 -14 0 -14 2 -1 10 12 8 10 10
-8 10 -13 0 -21 -4 -17 -9 3 -6 -14 -12 -37 -15 -81 -10 -758 -14 -758 -5 0
13 -57 11 -66 -2 -4 -7 -67 -10 -193 -8 -103 2 -192 0 -198 -4 -6 -4 -14 -3
-17 2 -4 5 0 12 6 14 7 3 -2 6 -19 6 -18 1 -33 5 -33 10 0 5 153 9 342 10 188
1 344 4 346 5 2 2 156 4 342 5 303 2 339 0 334 -14z m95 11 c-2 -2 -14 -8 -25
-14 -17 -9 -25 -8 -34 3 -11 13 -7 15 25 15 21 0 36 -2 34 -4z m-1475 -31 c4
-11 -2 -15 -23 -15 -18 0 -28 5 -28 15 0 9 9 15 23 15 12 0 24 -7 28 -15z
m-89 -91 c19 -20 12 -32 -10 -14 -20 16 -45 6 -45 -20 0 -15 7 -20 25 -20 14
0 25 5 25 10 0 6 5 10 10 10 7 0 7 -7 0 -21 -9 -15 -19 -19 -43 -17 -26 2 -33
8 -35 29 -3 28 20 59 43 59 7 0 21 -7 30 -16z m4012 -211 c-3 -10 -5 -4 -5 12
0 17 2 24 5 18 2 -7 2 -21 0 -30z m-3722 -8 c0 -23 -4 -30 -18 -29 -15 2 -18
-4 -15 -30 3 -27 0 -31 -24 -34 -25 -3 -28 0 -28 27 0 21 -5 31 -15 31 -21 0
-29 24 -15 49 9 17 19 20 63 18 50 -2 52 -3 52 -32z m189 29 c10 -4 16 -18 16
-41 0 -29 -5 -36 -30 -46 -16 -6 -30 -17 -30 -24 0 -7 -11 -13 -25 -13 -24 0
-25 3 -25 59 0 38 4 61 13 64 18 8 63 8 81 1z m127 -4 c19 -11 25 -45 11 -66
-4 -6 -17 -14 -29 -18 -13 -4 -23 -14 -23 -22 0 -11 -8 -14 -27 -12 -26 3 -27
5 -24 58 1 30 5 58 7 62 7 11 62 10 85 -2z m97 -12 l5 -22 8 22 c6 15 17 22
34 22 24 0 25 -2 25 -65 0 -63 -1 -65 -25 -65 -17 0 -25 6 -25 18 -1 15 -2 15
-10 2 -5 -9 -22 -16 -42 -15 l-33 0 -1 55 c-2 66 0 70 33 70 17 0 27 -7 31
-22z m191 -22 c20 -81 18 -84 -45 -84 l-56 1 7 46 c10 64 21 81 54 81 25 0 30
-5 40 -44z m90 27 c10 -17 10 -17 11 0 0 12 8 17 26 17 20 0 25 -4 20 -16 -3
-9 -6 -35 -6 -59 0 -45 -20 -66 -45 -45 -9 8 -15 8 -20 0 -3 -5 -15 -10 -26
-10 -17 0 -19 7 -19 65 0 62 1 65 25 65 13 0 29 -8 34 -17z m132 5 c0 -10 2
-10 6 0 2 6 15 12 27 12 22 0 23 -3 19 -52 -3 -29 -6 -59 -8 -65 -7 -21 -33
-15 -41 9 l-7 23 -8 -23 c-5 -12 -12 -22 -16 -22 -22 1 -28 20 -25 73 4 53 6
57 28 57 13 0 24 -6 25 -12z m557 -8 c2 -5 14 -3 27 6 22 14 74 11 76 -5 5
-39 5 -71 1 -93 -4 -25 -9 -28 -45 -28 -22 0 -37 3 -34 7 4 3 2 12 -4 19 -8
10 -14 11 -24 1 -7 -7 -11 -15 -9 -18 2 -4 -16 -7 -40 -7 l-43 -1 2 57 c1 31
3 60 3 64 5 18 83 16 90 -2z m292 11 c36 0 119 2 185 3 66 2 128 -1 138 -6 11
-5 17 -5 17 2 0 6 25 9 63 7 l62 -2 3 -57 3 -58 -66 0 c-45 0 -65 4 -65 13 -1
6 -9 2 -19 -9 -16 -20 -20 -21 -49 -8 -27 11 -32 18 -32 49 0 19 -4 35 -10 35
-5 0 -10 -18 -10 -39 0 -39 -12 -53 -37 -43 -8 2 -13 21 -13 43 0 27 -4 39
-14 39 -8 0 -18 -4 -21 -10 -3 -5 -1 -10 4 -10 20 0 11 -49 -11 -64 -26 -18
-174 -23 -163 -6 12 19 -5 30 -25 17 -19 -11 -19 -12 -2 -19 9 -4 -7 -7 -38
-7 -34 0 -50 3 -41 8 9 6 10 11 2 15 -6 4 -11 27 -11 51 0 50 19 68 60 60 14
-3 54 -5 90 -4z m-1601 -61 c-1 -59 -2 -60 -29 -60 -27 0 -27 1 -26 60 1 58 2
60 28 60 27 0 28 -1 27 -60z m2231 -1 c0 -11 -4 -18 -10 -14 -5 3 -7 12 -3 20
7 21 13 19 13 -6z m60 11 c0 -5 -5 -10 -11 -10 -5 0 -7 5 -4 10 3 6 8 10 11
10 2 0 4 -4 4 -10z m1367 -12 c-3 -8 -6 -5 -6 6 -1 11 2 17 5 13 3 -3 4 -12 1
-19z m-952 -9 c5 -5 -28 -10 -90 -10 -55 -1 -127 -3 -160 -4 -77 -3 -125 5
-125 19 0 14 360 10 375 -5z m1190 -103 c4 -43 2 -46 -44 -88 -44 -40 -153
-89 -166 -76 -3 3 -8 21 -12 41 -5 32 -2 37 24 50 57 30 117 102 144 172 l12
30 18 -42 c11 -23 21 -62 24 -87z m-2812 93 c4 -16 3 -18 -9 -8 -16 13 -19 29
-5 29 5 0 11 -9 14 -21z m1662 11 c3 -5 -1 -10 -9 -10 -9 0 -16 5 -16 10 0 6
4 10 9 10 6 0 13 -4 16 -10z m-5668 -6 c-3 -3 -12 -4 -19 -1 -8 3 -5 6 6 6 11
1 17 -2 13 -5z m78 -1 c-11 -3 -26 -12 -33 -21 -9 -12 -15 -13 -24 -4 -9 9 -6
14 13 21 13 5 33 9 44 9 l20 0 -20 -5z m2295 -25 l0 -33 -112 5 c-62 4 -222 5
-356 4 -133 -2 -266 0 -295 4 l-52 6 60 8 c33 4 179 10 325 13 214 4 413 15
428 24 1 0 2 -14 2 -31z m-2410 12 c0 -5 -4 -10 -10 -10 -5 0 -10 5 -10 10 0
6 5 10 10 10 6 0 10 -4 10 -10z m168 -1 c-2 -6 -8 -10 -13 -10 -5 0 -11 4 -13
10 -2 6 4 11 13 11 9 0 15 -5 13 -11z m1368 -26 c-4 -4 -20 -9 -34 -10 -68 -6
-742 -10 -737 -4 9 8 192 15 510 19 148 2 266 -1 261 -5z m-1312 -27 c-3 -9
-10 -13 -16 -10 -5 3 -4 12 3 20 15 18 22 13 13 -10z m56 3 c0 -5 -4 -9 -10
-9 -5 0 -10 7 -10 16 0 8 5 12 10 9 6 -3 10 -10 10 -16z m-280 -89 c0 -5 -4
-10 -10 -10 -5 0 -10 5 -10 10 0 6 5 10 10 10 6 0 10 -4 10 -10z m80 0 c0 -5
-4 -10 -10 -10 -5 0 -10 5 -10 10 0 6 5 10 10 10 6 0 10 -4 10 -10z m80 0 c0
-5 -4 -10 -10 -10 -5 0 -10 5 -10 10 0 6 5 10 10 10 6 0 10 -4 10 -10z m-32
-27 c-10 -2 -26 -2 -35 0 -10 3 -2 5 17 5 19 0 27 -2 18 -5z m6479 -80 c-3
-10 -5 -2 -5 17 0 19 2 27 5 18 2 -10 2 -26 0 -35z m-3395 -8 c-2 -16 -8 -34
-12 -39 -16 -16 -40 3 -40 32 0 35 8 44 35 40 16 -2 19 -9 17 -33z m62 4 l13
-31 6 31 c5 22 12 31 27 31 11 0 20 -5 20 -11 0 -8 5 -8 15 1 12 10 18 10 29
1 10 -8 16 -9 21 -1 15 24 35 10 35 -24 0 -37 -15 -55 -32 -38 -7 7 -17 7 -31
-1 -15 -9 -21 -9 -24 1 -4 9 -9 10 -18 2 -13 -10 -36 -9 -68 5 -10 4 -23 2
-32 -5 -11 -9 -15 -9 -15 -1 0 15 28 71 36 71 3 0 11 -14 18 -31z m256 12 c0
-11 3 -11 13 4 13 17 14 17 22 -6 7 -22 7 -50 0 -57 -1 -2 -14 0 -29 4 -19 4
-26 13 -26 30 0 30 -11 31 -29 3 -11 -18 -11 -23 1 -30 9 -6 7 -9 -9 -9 -26 0
-30 22 -8 40 8 7 15 17 15 22 0 6 -7 5 -15 -2 -8 -7 -15 -8 -15 -3 0 16 8 19
45 19 24 0 35 -5 35 -15z m92 -6 c-2 -11 -4 -28 -5 -37 -1 -10 -9 -18 -19 -18
-22 0 -23 13 -3 30 16 13 20 31 8 29 -17 -3 -24 2 -18 12 11 18 40 5 37 -16z
m2423 15 c-3 -5 -10 -10 -16 -10 -5 0 -9 5 -9 10 0 6 7 10 16 10 8 0 12 -4 9
-10z m-1477 -14 c-22 -16 -23 -30 -2 -47 13 -10 19 -10 36 0 26 16 37 5 12
-14 -25 -19 -49 -19 -68 1 -23 22 -20 53 7 64 31 12 35 11 15 -4z m1422 -11
c7 -9 8 -15 2 -15 -5 0 -12 7 -16 15 -3 8 -4 15 -2 15 2 0 9 -7 16 -15z m1319
-87 c0 -33 -2 -38 -9 -23 -12 28 -12 65 0 65 6 0 10 -19 9 -42z m1413 -40 c10
-60 17 -58 -226 -58 -207 0 -224 1 -240 19 -14 15 -15 24 -6 40 10 20 18 21
239 21 l229 0 4 -22z m-3717 -38 c-3 -5 -13 -10 -21 -10 -8 0 -14 5 -14 10 0
6 9 10 21 10 11 0 17 -4 14 -10z m717 -14 c4 -17 1 -23 -9 -19 -14 5 -17 25
-6 36 9 10 10 9 15 -17z m-1404 5 c18 -11 -17 -21 -75 -21 -40 0 -60 10 -46
24 9 9 106 7 121 -3z m647 -15 c34 -22 75 -110 75 -159 0 -48 -30 -108 -72
-141 -27 -21 -30 -28 -20 -38 11 -11 24 -7 75 20 34 18 70 32 80 32 9 0 17 1
17 3 1 1 3 29 7 62 3 33 12 68 21 77 11 14 13 31 8 73 -5 42 -3 55 7 55 26 0
55 -45 62 -97 10 -75 2 -93 -43 -94 l-37 -2 39 -6 c55 -8 60 -31 7 -31 -23 0
-41 -4 -41 -10 0 -5 14 -10 30 -10 17 0 30 -4 30 -8 0 -11 -60 -67 -85 -80
-11 -6 -107 -12 -212 -14 l-191 -3 -44 30 c-59 42 -78 83 -78 173 0 123 40
177 136 184 104 8 203 1 229 -16z m595 -19 c0 -5 -4 -5 -10 -2 -5 3 -10 14
-10 23 0 15 2 15 10 2 5 -8 10 -19 10 -23z m-2588 -4 c24 -21 23 -45 -2 -68
-29 -26 -70 -7 -70 32 0 21 3 24 9 13 6 -8 8 -17 5 -21 -6 -10 24 -19 41 -13
18 7 20 24 3 25 -10 0 -10 2 0 6 20 8 3 23 -26 23 -21 0 -24 2 -12 10 21 14
31 12 52 -7z m2616 -88 c-3 -3 -9 2 -12 12 -6 14 -5 15 5 6 7 -7 10 -15 7 -18z
m1988 -102 c-3 -4 -14 -8 -24 -9 -9 -1 -27 -6 -39 -9 -16 -5 -23 -3 -23 6 0
10 15 15 46 16 26 2 44 -1 40 -4z m1024 -164 c315 -74 339 -81 337 -106 0 -12
-5 -19 -9 -17 -4 3 -4 12 -1 21 4 10 2 14 -4 10 -6 -4 -48 0 -94 8 -127 23
-119 26 -120 -57 -1 -40 -4 -64 -6 -54 -4 15 -7 16 -14 5 -7 -11 -9 -11 -9 3
0 11 -6 15 -20 11 -11 -3 -20 -1 -20 4 0 5 -17 27 -38 49 -35 36 -57 54 -180
143 -43 31 -44 33 -17 26 17 -4 104 -24 195 -46z m-2885 -71 c4 -16 3 -28 -2
-28 -15 0 -32 42 -37 90 l-4 45 18 -40 c10 -22 22 -52 25 -67z m-2579 -95 c64
-118 104 -200 104 -214 0 -5 10 -19 21 -30 30 -30 21 -110 -18 -151 -27 -29
-53 -37 -53 -17 0 6 -8 9 -18 7 -30 -8 -41 15 -35 76 4 38 10 56 19 56 8 0 14
10 13 23 0 15 -2 17 -6 7 -12 -30 -42 -40 -41 -12 0 9 -13 55 -30 102 -44 123
-72 214 -72 232 0 17 14 26 41 27 10 1 37 -38 75 -106z m2861 60 c-4 -3 2 -12
13 -20 25 -18 26 -40 0 -48 -16 -5 -17 -10 -10 -31 9 -21 7 -24 -15 -24 -19 0
-25 5 -25 21 0 15 -4 19 -16 15 -9 -3 -20 -6 -26 -6 -6 0 -7 -8 -3 -17 4 -13
3 -15 -5 -7 -6 6 -13 24 -16 40 -3 16 -8 31 -10 34 -7 6 84 48 105 49 8 1 11
-2 8 -6z m2897 -32 c3 -9 8 -21 11 -27 5 -10 -42 -34 -66 -34 -5 0 -9 22 -9
49 l0 49 29 -11 c16 -6 32 -18 35 -26z m-396 -55 c24 -32 50 -282 32 -315 -12
-23 -54 -29 -66 -10 -4 6 -8 57 -11 113 -2 55 -6 124 -10 153 -9 83 15 109 55
59z m229 -48 c-3 -8 -6 -5 -6 6 -1 11 2 17 5 13 3 -3 4 -12 1 -19z m-2817
-373 c0 -8 -4 -15 -10 -15 -5 0 -10 7 -10 15 0 8 5 15 10 15 6 0 10 -7 10 -15z
m267 -75 c1 -11 -2 -18 -8 -15 -11 7 -12 35 -1 35 4 0 8 -9 9 -20z m-232 -80
c-3 -5 -10 -10 -16 -10 -5 0 -9 5 -9 10 0 6 7 10 16 10 8 0 12 -4 9 -10z m370
-20 c-3 -5 -11 -10 -16 -10 -6 0 -7 5 -4 10 3 6 11 10 16 10 6 0 7 -4 4 -10z"/>
<path d="M3761 1974 c0 -11 3 -14 6 -6 3 7 2 16 -1 19 -3 4 -6 -2 -5 -13z"/>
<path d="M5060 1951 c0 -4 11 -6 25 -3 14 2 25 6 25 8 0 2 -11 4 -25 4 -14 0
-25 -4 -25 -9z"/>
<path d="M5210 1949 c0 -5 5 -7 10 -4 6 3 10 8 10 11 0 2 -4 4 -10 4 -5 0 -10
-5 -10 -11z"/>
<path d="M5196 1905 c-19 -14 -19 -15 7 -15 19 0 25 4 21 15 -4 8 -7 15 -8 15
0 0 -10 -7 -20 -15z"/>
<path d="M3780 1680 c0 -5 5 -10 10 -10 6 0 10 5 10 10 0 6 -4 10 -10 10 -5 0
-10 -4 -10 -10z"/>
<path d="M3780 1650 c0 -5 5 -10 10 -10 6 0 10 5 10 10 0 6 -4 10 -10 10 -5 0
-10 -4 -10 -10z"/>
<path d="M3910 1665 c0 -15 4 -24 10 -20 6 3 10 12 10 20 0 8 -4 17 -10 20 -6
4 -10 -5 -10 -20z"/>
<path d="M4010 1666 c0 -14 5 -26 10 -26 6 0 10 9 10 19 0 11 -4 23 -10 26 -6
4 -10 -5 -10 -19z"/>
<path d="M3960 1660 c0 -11 5 -20 10 -20 6 0 10 9 10 20 0 11 -4 20 -10 20 -5
0 -10 -9 -10 -20z"/>
<path d="M4145 1650 c-3 -5 -1 -10 4 -10 6 0 11 5 11 10 0 6 -2 10 -4 10 -3 0
-8 -4 -11 -10z"/>
<path d="M3755 620 c3 -5 8 -10 11 -10 2 0 4 5 4 10 0 6 -5 10 -11 10 -5 0 -7
-4 -4 -10z"/>
<path d="M6550 962 c0 -5 7 -9 15 -9 8 0 15 4 15 9 0 4 -7 8 -15 8 -8 0 -15
-4 -15 -8z"/>
<path d="M9440 939 c0 -5 5 -7 10 -4 6 3 10 8 10 11 0 2 -4 4 -10 4 -5 0 -10
-5 -10 -11z"/>
</g>
</svg>
