<?xml version="1.0" encoding="UTF-8"?>
<svg version="1.1" xmlns="http://www.w3.org/2000/svg" width="500" height="185">
<path d="M0 0 C0.72316406 -0.0103125 1.44632812 -0.020625 2.19140625 -0.03125 C4.4375 0.5 4.4375 0.5 6.58251953 2.49511719 C10.17983248 5.02129591 13.12064303 5.10211403 17.36328125 5.109375 C18.48466743 5.13417938 18.48466743 5.13417938 19.62870789 5.15948486 C22.00255652 5.20783923 24.37576522 5.22930636 26.75 5.25 C28.36526635 5.27817043 29.98050306 5.30809937 31.59570312 5.33984375 C35.54291602 5.41359395 39.48977631 5.46324457 43.4375 5.5 C45.0166426 9.00367364 45.69302826 11.7527236 45.703125 15.58984375 C45.70570313 16.53923828 45.70828125 17.48863281 45.7109375 18.46679688 C45.70320313 19.44712891 45.69546875 20.42746094 45.6875 21.4375 C45.69523437 22.41396484 45.70296875 23.39042969 45.7109375 24.39648438 C45.6971225 29.4907645 45.46939215 33.73472913 43.4375 38.5 C38.4875 38.995 38.4875 38.995 33.4375 39.5 C32.51816695 43.17733219 32.44264419 45.09899538 32.875 48.75 C32.97683594 49.64203125 33.07867187 50.5340625 33.18359375 51.453125 C33.30927734 52.46632813 33.30927734 52.46632813 33.4375 53.5 C34.0975 53.17 34.7575 52.84 35.4375 52.5 C39.43252644 52.25803739 43.4359633 52.31480503 47.4375 52.3125 C48.55640625 52.30025391 49.6753125 52.28800781 50.828125 52.27539062 C52.42914063 52.27249023 52.42914063 52.27249023 54.0625 52.26953125 C55.04476563 52.26542236 56.02703125 52.26131348 57.0390625 52.25708008 C59.4375 52.5 59.4375 52.5 61.4375 54.5 C61.8515625 57.5390625 61.8515625 57.5390625 62.0625 61.125 C62.17464844 62.90777344 62.17464844 62.90777344 62.2890625 64.7265625 C62.33804687 65.64179687 62.38703125 66.55703125 62.4375 67.5 C65.85392759 67.75015873 65.85392759 67.75015873 69.4375 67.5 C70.0975 66.51 70.7575 65.52 71.4375 64.5 C73.33776855 64.14596558 73.33776855 64.14596558 75.70117188 64.17529297 C77.04493645 64.18039886 77.04493645 64.18039886 78.41584778 64.18560791 C79.89609688 64.21361481 79.89609688 64.21361481 81.40625 64.2421875 C82.44573288 64.2492572 83.48521576 64.2563269 84.55619812 64.26361084 C86.82425162 64.2799997 89.09226512 64.30287637 91.36019897 64.33135986 C97.45477897 64.40570874 103.54958642 64.42672623 109.64453125 64.453125 C110.91968094 64.45974152 112.19483063 64.46635803 113.50862122 64.47317505 C126.92417791 64.53144758 140.33425173 64.39662378 153.74804688 64.18463135 C156.33213475 64.14488554 158.91628824 64.10919852 161.50048828 64.07757568 C165.11904096 64.03281646 168.73716311 63.97534874 172.35546875 63.9140625 C173.43736984 63.90252136 174.51927094 63.89098022 175.63395691 63.87908936 C177.11681938 63.84926971 177.11681938 63.84926971 178.62963867 63.81884766 C179.49046555 63.80552399 180.35129242 63.79220032 181.23820496 63.7784729 C183.72624276 63.62946237 183.72624276 63.62946237 186.4375 61.5 C188.48046875 61.3046875 188.48046875 61.3046875 190.625 61.375 C191.883125 61.41625 193.14125 61.4575 194.4375 61.5 C198.99201989 70.60903979 198.62372506 80.54940585 199 90.5625 C199.0626001 92.20569214 199.0626001 92.20569214 199.12646484 93.88208008 C200.46782197 131.20739509 200.46782197 131.20739509 196.4375 139.5 C195.7775 140.16 195.1175 140.82 194.4375 141.5 C190.68298772 141.15943583 187.80588591 139.04655241 184.6875 137.0625 C183.70265625 136.44503906 182.7178125 135.82757813 181.703125 135.19140625 C180.95546875 134.63324219 180.2078125 134.07507813 179.4375 133.5 C179.4375 132.84 179.4375 132.18 179.4375 131.5 C178.88449219 131.2421875 178.33148438 130.984375 177.76171875 130.71875 C175.10548777 129.32590283 172.71010655 127.7151703 170.25 126 C169.36957031 125.3915625 168.48914063 124.783125 167.58203125 124.15625 C165.4375 122.5 165.4375 122.5 164.4375 120.5 C162.42228238 119.80968636 162.42228238 119.80968636 160.0625 119.375 C159.27101563 119.20742187 158.47953125 119.03984375 157.6640625 118.8671875 C155.32026945 118.41864274 155.32026945 118.41864274 152.4375 118.5 C152.68306641 119.34304687 152.68306641 119.34304687 152.93359375 120.203125 C153.46614997 122.63059056 153.53648681 124.76889681 153.5 127.25 C153.49097656 128.04921875 153.48195313 128.8484375 153.47265625 129.671875 C153.45525391 130.57679688 153.45525391 130.57679688 153.4375 131.5 C150.67464033 132.46099467 149.28824628 132.85314451 146.4375 132.5 C142.17398171 129.93895373 138.60391028 126.48203494 134.94580078 123.13525391 C128.36245556 116.45026794 128.36245556 116.45026794 119.8125 114 C118.69875 114.165 117.585 114.33 116.4375 114.5 C115.7775 113.84 115.1175 113.18 114.4375 112.5 C111.28744038 112.24179839 108.18190551 112.13357782 105.0234375 112.109375 C101.64121821 111.98953258 99.75993064 111.7496067 97.05078125 109.65234375 C95.4375 107.5 95.4375 107.5 94 104.4375 C92.1940167 101.0422514 90.90344743 100.0679286 87.4375 98.5 C83.77556777 97.59228845 80.39092429 97.39212742 76.625 97.4375 C75.64917969 97.44652344 74.67335938 97.45554687 73.66796875 97.46484375 C72.93191406 97.47644531 72.19585937 97.48804687 71.4375 97.5 C70.4475 94.86 69.4575 92.22 68.4375 89.5 C66.7875 89.5 65.1375 89.5 63.4375 89.5 C63.08171875 90.43199219 63.08171875 90.43199219 62.71875 91.3828125 C60.75750771 94.62364579 58.00157159 95.01915788 54.53125 96.1796875 C51.47297898 98.10822407 51.23761293 100.03714841 50.4375 103.5 C52.72715816 114.4644239 59.62052917 125.38443972 64.5625 135.375 C65.78363124 137.85401733 67.00314762 140.33381303 68.22091675 142.81448364 C68.9721903 144.34380768 69.72556785 145.87210073 70.48147583 147.3991394 C77.10319768 160.84011624 77.10319768 160.84011624 76.4375 165.5 C71.04732643 170.89017357 56.90343493 168.62959474 49.6796875 168.63671875 C48.36226563 168.63285156 47.04484375 168.62898437 45.6875 168.625 C44.30989493 168.62857229 42.93229067 168.63247696 41.5546875 168.63671875 C39.61722656 168.63478516 39.61722656 168.63478516 37.640625 168.6328125 C36.47176758 168.63168457 35.30291016 168.63055664 34.09863281 168.62939453 C31.4375 168.5 31.4375 168.5 30.4375 167.5 C30.30572707 165.91872487 30.20704464 164.33463365 30.125 162.75 C29.7150883 157.9990562 28.45956827 156.18314571 25.4375 152.5 C25.07127594 150.24023109 24.93847739 148.06939446 24.90625 145.78125 C24.58424786 143.28991852 24.58424786 143.28991852 22.43359375 141.1328125 C19.38630681 137.1134947 19.99831236 133.34999714 20.00390625 128.4609375 C19.74450758 125.38718954 19.74450758 125.38718954 17.40014648 123.83813477 C13.70421628 122.16879868 10.44436943 122.09509413 6.46875 122.12890625 C4.91275816 122.11152901 3.35676862 122.09394458 1.80078125 122.07617188 C-0.63497091 122.0660946 -3.07057549 122.06250565 -5.50634766 122.06420898 C-7.86925664 122.06063243 -10.23104169 122.03327529 -12.59375 122.00390625 C-13.31784058 122.01208878 -14.04193115 122.0202713 -14.78796387 122.02870178 C-19.65807988 121.95727007 -22.14520769 120.96538334 -25.5625 117.5 C-27.31412253 113.99675495 -27.47710489 109.99857257 -28.0625 106.15234375 C-28.28807644 103.58646472 -28.28807644 103.58646472 -29.5625 102.5 C-31.52703566 102.43564318 -33.49395356 102.44310752 -35.45922852 102.47827148 C-36.72046036 102.49836777 -37.9816922 102.51846405 -39.28114319 102.53916931 C-40.66789966 102.5663698 -42.05465397 102.59368058 -43.44140625 102.62109375 C-44.85244506 102.64538501 -46.26349163 102.66922906 -47.67454529 102.69264221 C-51.39497701 102.75558221 -55.11527189 102.82462049 -58.83557129 102.89489746 C-62.62924956 102.96549163 -66.42302514 103.03036187 -70.21679688 103.09570312 C-77.66547217 103.22484316 -85.11401224 103.36042097 -92.5625 103.5 C-89.884251 117.42764574 -89.884251 117.42764574 -84.3125 130.375 C-80.90902062 137.0142578 -78.7574292 142.95438428 -80.5625 150.5 C-82.5425 154.46 -82.5425 154.46 -84.5625 158.5 C-91.8225 158.5 -99.0825 158.5 -106.5625 158.5 C-106.5625 154.87 -106.5625 151.24 -106.5625 147.5 C-109.33844593 144.26436338 -109.33844593 144.26436338 -112.5625 142.5 C-111.9025 138.87 -111.2425 135.24 -110.5625 131.5 C-111.5525 131.12875 -112.5425 130.7575 -113.5625 130.375 C-115.2265625 129.3203125 -115.2265625 129.3203125 -116.5625 127.5 C-117.11626693 122.79841017 -116.90280723 118.21388533 -116.5625 113.5 C-117.8825 112.84 -119.2025 112.18 -120.5625 111.5 C-120.52769531 110.74074219 -120.49289063 109.98148437 -120.45703125 109.19921875 C-120.41642578 107.70841797 -120.41642578 107.70841797 -120.375 106.1875 C-120.34019531 105.20136719 -120.30539063 104.21523437 -120.26953125 103.19921875 C-120.34104246 100.49869802 -120.34104246 100.49869802 -121.85546875 98.67578125 C-123.7057883 97.21460155 -123.7057883 97.21460155 -127.0625 97 C-130.5625 96.5 -130.5625 96.5 -132.5 95.1875 C-133.5625 93.5 -133.5625 93.5 -133.5625 89.5 C-134.8202121 89.51252808 -136.07792419 89.52505615 -137.37374878 89.53796387 C-149.34458069 89.65703585 -161.31542548 89.77473249 -173.28628349 89.89115143 C-179.43760729 89.9510166 -185.58892591 90.0113327 -191.74023438 90.07275391 C-197.69900593 90.13223479 -203.65778886 90.19043387 -209.61658096 90.24781799 C-211.86704056 90.26970137 -214.11749604 90.29201329 -216.36794662 90.31480408 C-232.43325739 90.47709733 -248.49638795 90.52813997 -264.5625 90.5 C-266.5543655 85.70181953 -266.89161361 82.68353936 -266.5625 77.5 C-265.546875 75.25390625 -265.546875 75.25390625 -264.5625 73.5 C-263.42811493 73.48786972 -263.42811493 73.48786972 -262.27081299 73.47549438 C-252.45124422 73.36885347 -242.63183706 73.25112993 -232.8125 73.125 C-231.62461443 73.10975218 -231.62461443 73.10975218 -230.41273117 73.09419632 C-198.110115 72.67478979 -165.84412127 71.73585811 -133.5625 70.5 C-133.2325 67.53 -132.9025 64.56 -132.5625 61.5 C-133.779375 61.273125 -134.99625 61.04625 -136.25 60.8125 C-141.91735708 59.36317588 -144.84421888 55.98269796 -147.875 51.125 C-151.6320653 43.09370251 -150.36863711 31.88796986 -148.296875 23.4609375 C-147.03727402 20.09753488 -145.81441687 19.02640996 -142.5625 17.5 C-133.65945986 16.03604492 -124.49737837 16.32004973 -115.5 16.296875 C-114.75258545 16.29404762 -114.0051709 16.29122025 -113.23510742 16.28830719 C-109.29589499 16.27344553 -105.35671809 16.26412849 -101.41748047 16.25976562 C-97.35431295 16.25423458 -93.29147273 16.2300739 -89.22840881 16.20179367 C-86.09205132 16.18320743 -82.95577438 16.17796432 -79.81936646 16.17642975 C-78.32022267 16.17340422 -76.82108027 16.16537898 -75.32199097 16.15224457 C-73.23523251 16.13523366 -71.14929919 16.13704901 -69.0625 16.14355469 C-67.8765625 16.13990906 -66.690625 16.13626343 -65.46875 16.13250732 C-62.5625 16.5 -62.5625 16.5 -60.71875 17.83477783 C-58.16037614 21.51932778 -58.37016504 25.23172363 -58.24609375 29.57421875 C-58.22531265 30.2580513 -58.20453156 30.94188385 -58.18312073 31.6464386 C-58.11783846 33.8266921 -58.05883983 36.00706405 -58 38.1875 C-57.95679447 39.66732986 -57.91317953 41.14714783 -57.86914062 42.62695312 C-57.76140975 46.25118254 -57.66217893 49.87550438 -57.5625 53.5 C-51.6225 53.5 -45.6825 53.5 -39.5625 53.5 C-39.4078125 49.8184375 -39.4078125 49.8184375 -39.25 46.0625 C-38.42909968 31.36659968 -38.42909968 31.36659968 -33.5 26.4375 C-31.5625 25.5 -31.5625 25.5 -29.5625 25.5 C-29.2325 18.9 -28.9025 12.3 -28.5625 5.5 C-19.9375 5.25 -19.9375 5.25 -17.25537109 5.20214844 C-10.52661641 4.91440066 -6.34800917 -0.09084807 0 0 Z M-27.5625 43.5 C-27.8925 44.49 -28.2225 45.48 -28.5625 46.5 C-23.55463112 48.50126378 -19.32005161 48.78016608 -14.0234375 48.73046875 C-12.81852158 48.72978142 -12.81852158 48.72978142 -11.58926392 48.7290802 C-9.89998894 48.72607262 -8.21071637 48.71823137 -6.52148438 48.70581055 C-3.93870204 48.68750852 -1.35627807 48.68530145 1.2265625 48.68554688 C2.87239893 48.68063253 4.51823293 48.67480457 6.1640625 48.66796875 C7.31885605 48.66629951 7.31885605 48.66629951 8.49697876 48.66459656 C11.97792274 48.63379927 15.08814362 48.43144475 18.4375 47.5 C17.9425 45.025 17.9425 45.025 17.4375 42.5 C11.67171542 42.4752721 5.90596175 42.45712672 0.14013672 42.44506836 C-1.82113177 42.44004113 -3.78239652 42.43321843 -5.74365234 42.42456055 C-8.56348597 42.41242455 -11.38327002 42.40675556 -14.203125 42.40234375 C-15.07930481 42.39718246 -15.95548462 42.39202118 -16.85821533 42.38670349 C-17.67876404 42.38662796 -18.49931274 42.38655243 -19.34472656 42.38647461 C-20.06420471 42.384254 -20.78368286 42.38203339 -21.52496338 42.37974548 C-23.70753605 42.50855996 -25.51246045 42.72460122 -27.5625 43.5 Z M-22.4453125 101.67578125 C-23.97509518 104.1737131 -23.9960428 106.02104241 -24 108.9375 C-24.01933594 109.88496094 -24.03867187 110.83242187 -24.05859375 111.80859375 C-23.41451444 115.30285081 -22.43588991 116.43803249 -19.5625 118.5 C-16.6307568 119.1673924 -16.6307568 119.1673924 -13.5 119.0625 C-11.93572266 119.09537109 -11.93572266 119.09537109 -10.33984375 119.12890625 C-7.34471846 118.77031124 -7.34471846 118.77031124 -5.75390625 116.02734375 C-5.36074219 115.19332031 -4.96757812 114.35929687 -4.5625 113.5 C-4.2325 113.17 -3.9025 112.84 -3.5625 112.5 C-3.22482724 106.67417606 -3.22482724 106.67417606 -5.5625 101.5 C-8.39279148 100.08485426 -10.84629133 100.29219008 -14 100.25 C-15.73056641 100.21132812 -15.73056641 100.21132812 -17.49609375 100.171875 C-20.49440375 100.26711473 -20.49440375 100.26711473 -22.4453125 101.67578125 Z M3.4375 102.5 C3.1075 106.79 2.7775 111.08 2.4375 115.5 C0.7875 115.83 -0.8625 116.16 -2.5625 116.5 C-3.2225 117.16 -3.8825 117.82 -4.5625 118.5 C-0.52097594 118.26683515 1.77552764 118.0771041 4.875 115.375 C6.82990849 111.77796838 6.96108092 109.53905284 6.4375 105.5 C5.4475 104.51 4.4575 103.52 3.4375 102.5 Z " fill="#000000" transform="translate(284.5625,10.5)"/>
<path d="" fill="#000000" transform="translate(0,0)"/>
<path d="" fill="#000000" transform="translate(0,0)"/>
<path d="" fill="#000000" transform="translate(0,0)"/>
<path d="" fill="#000000" transform="translate(0,0)"/>
<path d="" fill="#000000" transform="translate(0,0)"/>
</svg>
