<svg xmlns="http://www.w3.org/2000/svg" width="500" height="185"><path d="M328 16c2 4 2 6 2 10v9c0 5 0 9-2 14l-10 1-1 9 1 3v2l2-1h22l4 2 1 7v6h7l2-3h42a1997 1997 0 0 0 62-1h6l5-2h8c5 9 4 19 5 29v3c1 38 1 38-3 46l-2 2c-4 0-7-2-10-4l-3-2-2-2v-2l-2-1-7-4-3-2-3-4-4-1-3-1h-5v2l1 7v4l-7 1-11-9c-7-7-7-7-16-9h-3l-2-2h-9c-4-1-6-1-8-3l-3-5-7-6-11-1h-5l-3-8h-5l-1 2c-2 3-4 4-8 5-3 2-3 4-4 7 2 11 9 22 14 32a6115 6115 0 0 1 6 12c7 13 7 13 6 18-5 5-20 3-27 3h-15l-4-1v-5c-1-5-2-6-5-10l-1-7-2-4c-3-4-2-8-2-13l-3-5-11-1a18368 18368 0 0 1-19 0h-2c-5-1-8-2-11-5-2-4-2-8-2-11l-2-4h-10a27132 27132 0 0 0-19 0l-12 1h-22c3 14 3 14 8 27 4 7 6 12 4 20l-4 8h-22v-11l-6-5 2-11-3-1-3-3v-14l-4-2v-8l-1-5-5-1-6-2-1-6h-4a162050 162050 0 0 1-127 1c-2-5-2-8-2-13l2-4h34l97-3 1-9-4-1c-5-1-8-5-11-9-4-8-3-20-1-28l6-6 27-1h2a4434 4434 0 0 1 45 0h3l5 1c2 4 2 8 2 12v2a2215 2215 0 0 1 1 11v11h18v-7c1-15 1-15 6-20l4-1 1-20h72Zm-71 38-1 3c5 2 9 2 15 2h2a909 909 0 0 0 18 0h2l10-1-1-5a7872 7872 0 0 0-32 0h-7l-6 1Zm5 58-1 7v3c0 4 1 5 4 7l6 1h3l5-3 1-3 1-1c0-6 0-6-2-11l-8-1h-4l-5 1Zm26 1-1 13-5 1-2 2c4 0 6 0 9-3 2-4 3-6 2-10l-3-3Z"/></svg>